<?xml version="1.0" encoding="UTF-8"?>
<svg xmlns="http://www.w3.org/2000/svg" xmlns:xlink="http://www.w3.org/1999/xlink" width="24pt" height="24pt" viewBox="0 0 24 24" version="1.1">
<g id="surface1">
<path style=" stroke:none;fill-rule:nonzero;fill:rgb(0%,0%,0%);fill-opacity:1;" d="M 12 0 C 7.207031 0 3.308594 3.898438 3.308594 8.691406 C 3.308594 14.640625 11.085938 23.371094 11.417969 23.742188 C 11.730469 24.085938 12.273438 24.085938 12.582031 23.742188 C 12.914062 23.371094 20.691406 14.640625 20.691406 8.691406 C 20.691406 3.898438 16.792969 0 12 0 Z M 12 13.066406 C 9.589844 13.066406 7.625 11.101562 7.625 8.691406 C 7.625 6.28125 9.589844 4.320312 12 4.320312 C 14.410156 4.320312 16.371094 6.28125 16.371094 8.691406 C 16.371094 11.101562 14.410156 13.066406 12 13.066406 Z M 12 13.066406 "/>
</g>
</svg>
